<svg xmlns="http://www.w3.org/2000/svg" version="1.1" xmlns:xlink="http://www.w3.org/1999/xlink" width="512" height="512" x="0" y="0" viewBox="0 0 24 24" style="enable-background:new 0 0 512 512" xml:space="preserve" class=""><g><path d="M6.5 11C2.916 11 0 13.916 0 17.5S2.916 24 6.5 24s6.5-2.916 6.5-6.5S10.084 11 6.5 11zm0 12C3.468 23 1 20.532 1 17.5S3.468 12 6.5 12s5.5 2.468 5.5 5.5S9.532 23 6.5 23zM9 19.079C9.003 20.168 8.077 21 7 21v.5a.5.5 0 0 1-1 0V21c-.96 0-1.778-.534-1.958-1.395a.498.498 0 0 1 .383-.594.496.496 0 0 1 .594.383c.08.368.434.605.902.605h1.158a.922.922 0 0 0 .151-1.83l-1.649-.358A1.907 1.907 0 0 1 4 15.92c-.003-1.089.872-1.921 2-1.921v-.5a.5.5 0 0 1 1 0v.5c.974 0 1.776.534 1.958 1.394a.5.5 0 1 1-.977.213c-.08-.368-.435-.606-.902-.606H5.921a.922.922 0 0 0-.151 1.83l1.649.358c.906.15 1.581.947 1.581 1.891zm11.384-.399a.5.5 0 0 1-.767.641l-1.619-1.94a11.433 11.433 0 0 1-1.858 6.393.502.502 0 0 1-.692.146.502.502 0 0 1-.146-.692 10.431 10.431 0 0 0 1.696-5.84l-1.614 1.934a.5.5 0 1 1-.767-.641l1.825-2.188c.545-.631 1.578-.624 2.111-.007zM20.5 9a.5.5 0 0 1-.5-.5v-5a.5.5 0 0 1 1 0v5a.5.5 0 0 1-.5.5zM17 9c1.103 0 2-.897 2-2V5c0-1.103-.897-2-2-2s-2 .897-2 2v2c0 1.103.897 2 2 2zm-1-4a1 1 0 0 1 2 0v2a1 1 0 0 1-2 0zm-2 0c0-1.103-.897-2-2-2h-1a1 1 0 0 0-1 1v4.5a.5.5 0 0 0 1 0V7h1c.103 0 .202-.015.301-.03l.486 1.67a.5.5 0 1 0 .961-.279l-.521-1.793A1.99 1.99 0 0 0 14 5zm-3 1V4h1a1 1 0 0 1 0 2zM.081 8.553a.5.5 0 0 1 .146-.692A11.39 11.39 0 0 1 4.411 6.19a.509.509 0 0 1 .582.402.5.5 0 0 1-.402.582c-1.365.25-2.649.763-3.816 1.524a.5.5 0 0 1-.692-.146zM24 3.5v5c0 1.93-1.57 3.5-3.5 3.5h-1.977l-1.93 1.595a1.654 1.654 0 0 1-1.094.405 1.7 1.7 0 0 1-1.131-.429l-1.929-1.695a.501.501 0 0 1 .66-.752l1.931 1.697c.254.228.667.23.912.014l2.082-1.722a.505.505 0 0 1 .318-.114h2.156c1.379 0 2.5-1.12 2.5-2.499v-5c0-1.379-1.121-2.5-2.5-2.5h-10a2.502 2.502 0 0 0-2.5 2.5v5a.5.5 0 0 1-1 0v-5c0-1.93 1.57-3.5 3.5-3.5h10c1.93 0 3.5 1.57 3.5 3.5z" fill="#000000" opacity="1" data-original="#000000" class=""></path></g></svg>